Exact Audio Copy V0.99 prebeta 1 from 25. May 2007

EAC 抓取日志文件从15. 十月 2010, 17:46

韦唯 / 20世纪中华歌坛名人百集珍藏版

使用驱动器  ：BENQ    DVD-ROM 16X   Adapter: 0  ID: 1

读取模式     : 保护
使用精确流   : 是
废除音频缓冲 : 是
使用 C2 指针 : 否

读取偏移校正                   : 738
读取 Lead-In 和 Lead-Out       : 否
用静音填充抓取中丢失偏移的采样 : 是
去除首尾静音块                 : 否
已用接口                       : 已安装外部 ASPI 接口

所用输出格式 : 内部 WAV 函数
样本格式     : 44.100 Hz;16 Bit;立体声


被抓轨 CD 的 TOC

     音轨 |   开始   |   长度   | 起始扇区 | 结尾扇区 
    --------------------------------------------------
       1  |  0:00.00 |  5:31.62 |       0  |   24886  
       2  |  5:31.62 |  3:07.05 |   24887  |   38916  
       3  |  8:38.67 |  5:43.43 |   38917  |   64684  
       4  | 14:22.35 |  3:24.55 |   64685  |   80039  
       5  | 17:47.15 |  3:05.37 |   80040  |   93951  
       6  | 20:52.52 |  3:32.05 |   93952  |  109856  
       7  | 24:24.57 |  2:56.70 |  109857  |  123126  
       8  | 27:21.52 |  3:56.43 |  123127  |  140869  
       9  | 31:18.20 |  3:26.55 |  140870  |  156374  
      10  | 34:45.00 |  4:48.52 |  156375  |  178026  
      11  | 39:33.52 |  3:28.28 |  178027  |  193654  
      12  | 43:02.05 |  3:39.12 |  193655  |  210091  
      13  | 46:41.17 |  3:01.55 |  210092  |  223721  
      14  | 49:42.72 |  3:40.60 |  223722  |  240281  
      15  | 53:23.57 |  4:54.70 |  240282  |  262401  


范围状态及错误

已选择范围

     文件名 E:\文件夹\20世纪中华歌坛名人百集珍藏版-韦唯[lwg188原创]\韦唯 - 20世纪中华歌坛名人百集珍藏版.wav

     峰值电平 98.5 %
     范围质量 100.0 %
     复制 CRC 75BECDC9
     复制成功

没有错误发生

状态报告结尾
